# xmcd
#
# Track frame offsets: 
#        150
#        12941
#        31906
#        45070
#        62472
#        82165
#        101435
#        119281
#        137020
#        151714
#        167357
#        187333
#        201215
#        216442
#        238680
#        251807
#        269861
#        285945
#        303122
#        316549
#
# Disc length: 4428 seconds
#
# Revision: 5
# Processed by: cddbd v1.5.2PL0 Copyright (c) Steve Scherf et al.
# Submitted via: ExactAudioCopy v0.99pb5
#
DISCID=0a114a14
DTITLE=Julio Iglesias - Greatest Hits
DYEAR=1999
DGENRE=Vocal
TTITLE0=El Amor (La Tendresse)
TTITLE1=Mammy Blue
TTITLE2=Pobre Diablo
TTITLE3=Baila Morena
TTITLE4=Sono lo
TTITLE5=When I Need You
TTITLE6=When Tell Me That You Love Me
TTITLE7=Nostalgie
TTITLE8=Crazy
TTITLE9=Wo Bist Du
TTITLE10=Aqua Dulce, Aqua Sala
TTITLE11=Let It Be Me
TTITLE12=Amor
TTITLE13=La Paloma
TTITLE14=A Vecus Tu, A Vecus Yo
TTITLE15=Love Is On Our Side Again
TTITLE16=Abrazame
TTITLE17=Hey
TTITLE18=Por Un Poco De Tu Amor
TTITLE19=Manuela
EXTD=YEAR: 1999
EXTT0=
EXTT1=
EXTT2=
EXTT3=
EXTT4=
EXTT5=
EXTT6=
EXTT7=
EXTT8=
EXTT9=
EXTT10=
EXTT11=
EXTT12=
EXTT13=
EXTT14=
EXTT15=
EXTT16=
EXTT17=
EXTT18=
EXTT19=
PLAYORDER=
